<?xml version="1.0" encoding="iso-8859-1"?>
<!-- Generator: Adobe Illustrator 19.0.0, SVG Export Plug-In . SVG Version: 6.00 Build 0)  -->
<svg version="1.1" id="Layer_1" xmlns="http://www.w3.org/2000/svg" xmlns:xlink="http://www.w3.org/1999/xlink" x="0px" y="0px"
	 viewBox="0 0 473.654 473.654" style="enable-background:new 0 0 473.654 473.654;" xml:space="preserve">
<circle style="fill:#A2D4DE;" cx="236.827" cy="236.827" r="236.827"/>
<g>
	<path style="fill:#5B4F3F;" d="M139.673,220.605L103.582,240.9l36.091,20.287c4.992,2.808,7.49,7.857,7.49,15.142
		c0,4.63-1.081,8.683-3.235,12.154c-2.165,3.482-4.839,5.217-8.018,5.217c-1.481,0-2.962-0.408-4.435-1.238l-63.947-35.945
		c-6.137-3.47-9.207-8.676-9.207-15.613c0-6.941,3.07-12.15,9.207-15.62l63.947-35.945c1.473-0.823,2.954-1.238,4.435-1.238
		c3.179,0,5.849,1.739,8.018,5.209c2.154,3.478,3.235,7.535,3.235,12.165C147.163,212.748,144.665,217.793,139.673,220.605z"/>
	<path style="fill:#5B4F3F;" d="M326.656,205.467c0-4.63,1.081-8.687,3.235-12.165c2.161-3.47,4.835-5.209,8.018-5.209
		c1.481,0,2.958,0.415,4.435,1.238l63.947,35.945c6.137,3.47,9.207,8.676,9.207,15.62c0,6.933-3.07,12.142-9.207,15.613
		l-63.947,35.945c-1.477,0.83-2.954,1.238-4.435,1.238c-3.182,0-5.852-1.735-8.018-5.217c-2.154-3.47-3.235-7.524-3.235-12.154
		c0-7.285,2.494-12.333,7.49-15.142l36.087-20.287l-36.087-20.295C329.15,217.793,326.656,212.748,326.656,205.467z"/>
	<path style="fill:#5B4F3F;" d="M253.311,312.643c-3.238,7.06-11.593,10.149-18.646,6.911l0,0
		c-7.057-3.238-10.149-11.589-6.911-18.646l64.25-139.886c3.235-7.06,11.581-10.149,18.638-6.911l0,0
		c7.064,3.238,10.153,11.593,6.911,18.642L253.311,312.643z"/>
</g>
<g>
</g>
<g>
</g>
<g>
</g>
<g>
</g>
<g>
</g>
<g>
</g>
<g>
</g>
<g>
</g>
<g>
</g>
<g>
</g>
<g>
</g>
<g>
</g>
<g>
</g>
<g>
</g>
<g>
</g>
</svg>
