<svg id="Layer_1" data-name="Layer 1" xmlns="http://www.w3.org/2000/svg" viewBox="0 0 122.88 98.62"><defs><style>.cls-1{fill-rule:evenodd;}</style></defs><title>counseling</title><path class="cls-1" d="M30.22,55.25l-.11,7H42.65A4.84,4.84,0,0,1,47.48,67v4.83h0V90.73a4.85,4.85,0,0,1-4.83,4.83H37.77v-22c0-2,.38-1.75-1.54-1.75H23.81v0H17.62a7.29,7.29,0,0,1-7.26-7.26V40.79a7.4,7.4,0,0,1,7.38-7.39h3.65c5.79,0,6.37,2.77,7.85,5.67l6.17,2.43c4.46,2,3.32,2.41,6.35-1.34l3.94-4.89c1.93-3.08,9.56.14,6.29,5.31l-5.72,7.81c-2.39,3.26-5.55,3.72-9.38,2.12l-6.67-2.35v7.09ZM57.57,31.38a14.8,14.8,0,0,0,16.57,2.83l5.13,2-1.7-4c5.7-4.57,4.68-10.85.48-15.13a14.8,14.8,0,0,1-1.63,4.65,17.2,17.2,0,0,1-4.72,5.37,21,21,0,0,1-6.59,3.34,23.72,23.72,0,0,1-7.54,1Zm7.88-19.24a2.23,2.23,0,1,1-2.23,2.23,2.23,2.23,0,0,1,2.23-2.23Zm-14.75,0a2.23,2.23,0,1,1-2.23,2.23,2.23,2.23,0,0,1,2.23-2.23Zm7.38,0a2.23,2.23,0,1,1-2.23,2.23,2.23,2.23,0,0,1,2.23-2.23ZM58.52,0h0A19.85,19.85,0,0,1,70.8,4.53a13.25,13.25,0,0,1,4.94,10.39v0a13.27,13.27,0,0,1-5.56,10.12,19.88,19.88,0,0,1-12.54,3.79,21.34,21.34,0,0,1-3.9-.47,19.82,19.82,0,0,1-3.33-1l-7.67,3,2.56-6.1a14.6,14.6,0,0,1-3.55-4.48,12.27,12.27,0,0,1-1.33-5.89A13.24,13.24,0,0,1,46,3.8,19.87,19.87,0,0,1,58.51,0Zm-.05,1.87h0A18,18,0,0,0,47.11,5.3,11.41,11.41,0,0,0,42.29,14a10.4,10.4,0,0,0,1.14,5A13.11,13.11,0,0,0,47,23.28l.56.44L46.19,27l4.24-1.66.35.15a18.7,18.7,0,0,0,3.35,1.05,19.8,19.8,0,0,0,3.56.44,18,18,0,0,0,11.36-3.41,11.41,11.41,0,0,0,4.81-8.65v0A11.37,11.37,0,0,0,69.58,6a18,18,0,0,0-11.1-4.08ZM118.91,91a1.39,1.39,0,0,0-.4-.81,17.79,17.79,0,0,0-6.19-4,20.8,20.8,0,0,0-5.44-1.29l.37-5.75h13.1a2.49,2.49,0,0,0,2.48-2.49c0-10.27-2.42-18,0-29.7.72-3.47-6.44-4-6.44.18V73.52H91.62c-1.36,0-2.48,1.82-2.48,3.18v1.94a.55.55,0,0,0,.55.55h13.14l.51,5.69a20.85,20.85,0,0,0-5.77,1.2,18.25,18.25,0,0,0-6,3.6,1.41,1.41,0,0,0-.41,1.39,2.26,2.26,0,0,0-1.06,2.11,2.64,2.64,0,1,0,5.28,0,2.27,2.27,0,0,0-1.08-2.12,15.7,15.7,0,0,1,4.25-2.33,18,18,0,0,1,5.54-1.06l.29,2.85v.12a2.53,2.53,0,0,0-1.93,2.54,2.64,2.64,0,1,0,5.27,0,2.51,2.51,0,0,0-1.91-2.53v-.14L106,87.7a17.38,17.38,0,0,1,5.28,1.16h0a15.24,15.24,0,0,1,4.22,2.44,2.11,2.11,0,0,0-.79,1.88,2.9,2.9,0,0,0,2.64,2.64A2.84,2.84,0,0,0,120,93.18a2.27,2.27,0,0,0-1.1-2.14ZM97.78,10.6a10.1,10.1,0,1,0,10.1,10.1,10.1,10.1,0,0,0-10.1-10.1Zm-4.2,39.62.19,12H81.23A4.84,4.84,0,0,0,76.4,67v4.83h.06V90.73a4.84,4.84,0,0,0,4.82,4.83h4.83V73.24c0-2.12.8-1.39,3.19-1.39h10.78v0h6.19a7.29,7.29,0,0,0,7.26-7.26V39.37A7.4,7.4,0,0,0,106.15,32h-3.66c-7.6,0-6.39,5.24-9.76,8.53s-2.48,3.62-7,3.62H75.92c-4.39-.09-5.23,8,1,7.63h9c4,0,4.34.64,7.64-1.55ZM80.45,53.33H45a.43.43,0,0,0-.43.43v6.15a.44.44,0,0,0,.43.43H58.64V98a.58.58,0,0,0,.57.57h6.51a.57.57,0,0,0,.56-.57V60.34H80.45a.43.43,0,0,0,.43-.43V53.76a.43.43,0,0,0-.43-.43ZM1.34,48.44H4.86a1.4,1.4,0,0,1,1.31,1.3,155.84,155.84,0,0,1,2,25.16H32.26A1.74,1.74,0,0,1,34,76.63v3.49H32.61V98a.53.53,0,0,1-.53.52H27.47a.53.53,0,0,1-.53-.52V90.21H7.23c-.29,2.37-.64,4.73-1.06,7.1a1.42,1.42,0,0,1-1.31,1.31H1.34C.62,98.62-.17,98,0,97.31,4.67,81.16,3.7,65.36,0,49.74c-.16-.69.59-1.3,1.31-1.3ZM26.94,87.8V80.12H8.11c-.11,3.27-.33,4.42-.68,7.68ZM21.17,10.24a10.11,10.11,0,1,1-10.1,10.11,10.11,10.11,0,0,1,10.1-10.11Z"/></svg>