<svg id="Layer_1" data-name="Layer 1" xmlns="http://www.w3.org/2000/svg" viewBox="0 0 122.88 70.39"><defs><style>.cls-1{fill:#333;}.cls-1,.cls-2,.cls-3,.cls-4,.cls-5{fill-rule:evenodd;}.cls-2{fill:#ccc;}.cls-3{fill:#83b3d7;}.cls-4{fill:#3a91be;}.cls-5{fill:#e99688;}</style></defs><title>website-design</title><path class="cls-1" d="M16.3,0H106a2.15,2.15,0,0,1,2.14,2.14V39.52l-3.36-2.27V8.91h-87V61.35h87V55.77l3.36,1.51v5.19a2.19,2.19,0,0,1-.39,1.23h11.76a3.35,3.35,0,0,1,0,6.69H3.35a3.35,3.35,0,1,1,0-6.69h11.2a2.12,2.12,0,0,1-.39-1.23V2.14A2.14,2.14,0,0,1,16.3,0ZM28.74,3.45a1.29,1.29,0,1,1-1.29,1.29,1.29,1.29,0,0,1,1.29-1.29Zm-4.51,0a1.29,1.29,0,1,1-1.29,1.29,1.29,1.29,0,0,1,1.29-1.29Zm-4.51,0a1.29,1.29,0,1,1-1.29,1.29,1.29,1.29,0,0,1,1.29-1.29Zm38.2,62h7a1.2,1.2,0,0,1,1.2,1.2h0a1.2,1.2,0,0,1-1.2,1.2h-7a1.2,1.2,0,0,1-1.2-1.2h0a1.2,1.2,0,0,1,1.2-1.2Z"/><path class="cls-2" d="M37.25,45.05c-.92,0-.92-3.42,0-3.42H74.17a10.55,10.55,0,0,0,5.17,1.82,11,11,0,0,0,4.14-.37l1.89,2Zm-11.89,0c-.91,0-.91-3.42,0-3.42H34c.91,0,.91,3.42,0,3.42Zm-.29-7.15c-.92,0-.92-3.42,0-3.42H33.7c.91,0,.91,3.42,0,3.42Zm12.18,0c-.92,0-.92-3.42,0-3.42H69.3l.1.22c.51,1.1,1,2.18,1.59,3.2Z"/><path class="cls-3" d="M78.16,13h17A2.77,2.77,0,0,1,98,15.73V26.58a2.77,2.77,0,0,1-2.76,2.76H89.51a11.07,11.07,0,0,0-1.75-2.49A15.21,15.21,0,0,0,80,22.55a21.7,21.7,0,0,0-4.62-.5V15.73A2.77,2.77,0,0,1,78.16,13Z"/><path class="cls-4" d="M52.68,13h17a2.77,2.77,0,0,1,2.75,2.76v6.45c-1.39.14-2.67.34-3.74.54A4.53,4.53,0,0,0,65.1,28a4.4,4.4,0,0,0,.48,1.36H52.68a2.76,2.76,0,0,1-2.75-2.76V15.73A2.76,2.76,0,0,1,52.68,13Z"/><path class="cls-5" d="M27.2,13h17A2.77,2.77,0,0,1,47,15.73V26.58a2.78,2.78,0,0,1-2.76,2.76h-17a2.76,2.76,0,0,1-2.75-2.76V15.73A2.76,2.76,0,0,1,27.2,13Z"/><path class="cls-1" d="M69.55,27.17c4.64,3.09,4,11.12,10.26,11.78a6.49,6.49,0,0,0,4.93-1.61,4.15,4.15,0,0,0,1.34-2.7c.4-4.15-3.4-6.86-7-7.68a24.48,24.48,0,0,0-9.48.21Zm19,8.21a6.25,6.25,0,0,1-2.33,4l4.78,5a18.69,18.69,0,0,0,4.64-8.07,31.63,31.63,0,0,1-7.09-.95Zm8.29,1.93a21,21,0,0,1-4.48,7.93l22.17,9.95a6.26,6.26,0,0,0,1.46.54,2.36,2.36,0,0,0,2.74-2.92,2.77,2.77,0,0,0-1.21-1.45l-20.68-14Z"/></svg>