<svg width="250" height="250" viewBox="0 0 250 250" fill="none" xmlns="http://www.w3.org/2000/svg">
<rect width="250" height="250" rx="125" fill="#1F1D1D"/>
<path fill-rule="evenodd" clip-rule="evenodd" d="M189.306 52.3549C186.698 51.4762 183.904 51 181 51H51V55V77V183V196V209H183C183.673 209 184.34 208.974 185 208.924V209C199.359 209 211 197.359 211 183V78C211 65.1074 201.616 54.4065 189.306 52.3549ZM77 183H151V151H107C97.0589 151 89 142.941 89 133V103C89 102.324 89.0373 101.657 89.1099 101H89C89 91.0589 97.0589 83 107 83H150C159.941 83 168 91.0589 168 101H107V133H150C159.145 133 166.697 139.819 167.848 148.65C168.593 150.625 169 152.765 169 155V183H185V77H77V183Z" fill="white"/>
</svg>
